<svg width="24" height="24" viewBox="0 0 24 24" fill="none" xmlns="http://www.w3.org/2000/svg">
<path d="M18.375 0H5.625C2.5184 0 0 2.5184 0 5.625V18.375C0 21.4816 2.5184 24 5.625 24H18.375C21.4816 24 24 21.4816 24 18.375V5.625C24 2.5184 21.4816 0 18.375 0Z" fill="#0E3FEE"/>
<mask id="mask0_54_546" style="mask-type:luminance" maskUnits="userSpaceOnUse" x="2" y="4" width="20" height="16">
<path d="M2.625 4.78125H21.375V19.3059H2.625V4.78125Z" fill="white"/>
</mask>
<g mask="url(#mask0_54_546)">
<path d="M16.8515 7.82898C15.9439 7.43853 14.986 7.1601 14.0019 7.00068C13.993 6.99913 13.9837 7.00026 13.9755 7.00391C13.9673 7.00756 13.9605 7.01354 13.9561 7.02101C13.8331 7.22607 13.6967 7.49371 13.6013 7.70402C12.5252 7.55301 11.4547 7.55301 10.4007 7.70402C10.3052 7.48899 10.1639 7.22607 10.0403 7.02101C10.0357 7.0137 10.0289 7.00784 10.0207 7.00422C10.0126 7.00059 10.0034 6.99935 9.99447 7.00068C9.01027 7.15978 8.05235 7.43822 7.14483 7.82898C7.13707 7.83207 7.13051 7.83734 7.12607 7.84407C5.31111 10.3851 4.81397 12.8636 5.05785 15.3115C5.05853 15.3175 5.06049 15.3233 5.06361 15.3286C5.06674 15.3338 5.07097 15.3385 5.07605 15.3422C6.27347 16.1663 7.43344 16.6666 8.57186 16.9982C8.58071 17.0007 8.59016 17.0006 8.59895 16.9979C8.60773 16.9952 8.61542 16.99 8.621 16.9831C8.89029 16.6385 9.13032 16.2751 9.33619 15.893C9.33902 15.8878 9.34064 15.882 9.34094 15.8762C9.34123 15.8703 9.3402 15.8644 9.3379 15.859C9.33561 15.8535 9.3321 15.8486 9.32762 15.8445C9.32314 15.8404 9.31778 15.8372 9.3119 15.8352C8.9311 15.6998 8.56857 15.5348 8.21983 15.3474C8.21347 15.3439 8.20814 15.339 8.20429 15.3331C8.20045 15.3272 8.19821 15.3205 8.19777 15.3136C8.19734 15.3067 8.19872 15.2998 8.2018 15.2936C8.20487 15.2873 8.20955 15.2818 8.21542 15.2776C8.28898 15.2261 8.36129 15.173 8.43228 15.1184C8.43849 15.1135 8.44602 15.1104 8.45401 15.1094C8.462 15.1084 8.47013 15.1095 8.4775 15.1126C10.7687 16.0929 13.2492 16.0929 15.5134 15.1126C15.5207 15.1093 15.529 15.1081 15.5371 15.109C15.5452 15.1099 15.5529 15.113 15.5592 15.1178C15.6303 15.1728 15.7028 15.2261 15.7766 15.2776C15.7825 15.2818 15.7872 15.2872 15.7904 15.2935C15.7935 15.2997 15.7949 15.3066 15.7945 15.3135C15.7942 15.3204 15.792 15.3271 15.7882 15.333C15.7844 15.3389 15.7791 15.3439 15.7728 15.3474C15.4238 15.5384 15.0583 15.7014 14.6801 15.8347C14.6743 15.8368 14.6689 15.84 14.6645 15.8442C14.66 15.8484 14.6566 15.8534 14.6544 15.8589C14.6521 15.8644 14.6511 15.8703 14.6515 15.8761C14.6518 15.882 14.6535 15.8878 14.6564 15.893C14.8659 16.2721 15.1047 16.6362 15.371 16.9826C15.3764 16.9897 15.3841 16.995 15.3929 16.9978C15.4017 17.0006 15.4112 17.0007 15.4201 16.9982C16.5641 16.6666 17.724 16.1663 18.9215 15.3422C18.9267 15.3386 18.9309 15.3341 18.9341 15.3289C18.9372 15.3237 18.9391 15.3179 18.9397 15.312C19.2316 12.482 18.4508 10.0238 16.8697 7.84459C16.8659 7.83751 16.8594 7.83197 16.8515 7.82898ZM9.67835 13.821C8.9885 13.821 8.4201 13.2276 8.4201 12.4987C8.4201 11.7698 8.97751 11.1764 9.67835 11.1764C10.3847 11.1764 10.9475 11.7751 10.9365 12.4987C10.9365 13.2276 10.3792 13.821 9.67835 13.821ZM14.3303 13.821C13.6404 13.821 13.0721 13.2276 13.0721 12.4987C13.0721 11.7698 13.6294 11.1764 14.3303 11.1764C15.0366 11.1764 15.5995 11.7751 15.5885 12.4987C15.5885 13.2276 15.0366 13.821 14.3303 13.821Z" fill="#0C0C0C"/>
</g>
</svg>
