<svg width="19" height="22" viewBox="0 0 19 22" fill="none" xmlns="http://www.w3.org/2000/svg">
<path d="M8 22C6.89605 21.9946 6.00092 21.1039 5.99 20H9.99C9.99211 20.2674 9.94113 20.5325 9.84 20.78C9.57766 21.382 9.04181 21.8211 8.4 21.96H8.395H8.38H8.362H8.353C8.23682 21.9842 8.11865 21.9976 8 22ZM16 19H0V17L2 16V10.5C1.94732 9.08912 2.26594 7.68913 2.924 6.44C3.57904 5.28151 4.6987 4.45888 6 4.18V2H10V4.18C12.579 4.794 14 7.038 14 10.5V16L16 17V19Z" fill="white"/>
<circle cx="13" cy="6" r="5" fill="#FF3131" stroke="#0C0C0C" stroke-width="2"/>
</svg>
