<svg width="12" height="9" viewBox="0 0 12 9" fill="none" xmlns="http://www.w3.org/2000/svg">
<path d="M4.00005 6.6L9.90005 0.700003C10.0834 0.516669 10.3167 0.425003 10.6 0.425003C10.8834 0.425003 11.1167 0.516669 11.3 0.700003C11.4834 0.883336 11.575 1.11667 11.575 1.4C11.575 1.68334 11.4834 1.91667 11.3 2.1L4.70005 8.7C4.50005 8.9 4.26672 9 4.00005 9C3.73338 9 3.50005 8.9 3.30005 8.7L0.700048 6.1C0.516715 5.91667 0.425049 5.68334 0.425049 5.4C0.425049 5.11667 0.516715 4.88334 0.700048 4.7C0.883382 4.51667 1.11672 4.425 1.40005 4.425C1.68338 4.425 1.91672 4.51667 2.10005 4.7L4.00005 6.6Z" fill="#ffffff"/>
</svg>
